<mxfile host="app.diagrams.net" modified="2023-10-22T08:24:22.636Z" agent="Mozilla/5.0 (Windows NT 10.0; Win64; x64) AppleWebKit/537.36 (KHTML, like Gecko) Chrome/119.0.0.0 Safari/537.36 Edg/119.0.0.0" etag="_GgDBTHxL-KwMsdF9ecI" version="21.8.2" type="github">
  <diagram name="Page-1" id="10a91c8b-09ff-31b1-d368-03940ed4cc9e">
    <mxGraphModel dx="2310" dy="1252" grid="1" gridSize="10" guides="1" tooltips="1" connect="1" arrows="1" fold="1" page="1" pageScale="1" pageWidth="1100" pageHeight="850" background="none" math="0" shadow="0">
      <root>
        <mxCell id="0" />
        <mxCell id="1" parent="0" />
        <mxCell id="62893188c0fa7362-1" value="Website mengalami masalah performa?" style="whiteSpace=wrap;html=1;rounded=1;shadow=1;labelBackgroundColor=none;strokeWidth=1;fontFamily=Verdana;fontSize=12;align=center;fillColor=#a20025;strokeColor=#6F0000;fontColor=#ffffff;" parent="1" vertex="1">
          <mxGeometry x="610" y="50" width="120" height="60" as="geometry" />
        </mxCell>
        <mxCell id="62893188c0fa7362-2" value="&lt;span&gt;Waktu Loading Lambat?&lt;/span&gt;" style="whiteSpace=wrap;html=1;rounded=1;shadow=1;labelBackgroundColor=none;strokeWidth=1;fontFamily=Verdana;fontSize=12;align=center;fillColor=#1ba1e2;fontColor=#ffffff;strokeColor=#006EAF;" parent="1" vertex="1">
          <mxGeometry x="510" y="170" width="120" height="60" as="geometry" />
        </mxCell>
        <mxCell id="62893188c0fa7362-4" value="No" style="rounded=0;html=1;labelBackgroundColor=none;startArrow=none;startFill=0;startSize=5;endArrow=none;endFill=0;endSize=5;jettySize=auto;orthogonalLoop=1;strokeWidth=1;fontFamily=Verdana;fontSize=12" parent="1" source="62893188c0fa7362-1" edge="1">
          <mxGeometry x="-0.3002" y="13" relative="1" as="geometry">
            <mxPoint as="offset" />
            <mxPoint x="722.5" y="170" as="targetPoint" />
          </mxGeometry>
        </mxCell>
        <mxCell id="62893188c0fa7362-5" value="Yes" style="rounded=0;html=1;labelBackgroundColor=none;startArrow=none;startFill=0;startSize=5;endArrow=none;endFill=0;endSize=5;jettySize=auto;orthogonalLoop=1;strokeWidth=1;fontFamily=Verdana;fontSize=12" parent="1" source="62893188c0fa7362-1" target="62893188c0fa7362-2" edge="1">
          <mxGeometry x="-0.359" y="-11" relative="1" as="geometry">
            <mxPoint as="offset" />
          </mxGeometry>
        </mxCell>
        <mxCell id="62893188c0fa7362-8" value="&lt;span&gt;Banyaknya gambar/video?&lt;/span&gt;" style="whiteSpace=wrap;html=1;rounded=1;shadow=1;labelBackgroundColor=none;strokeWidth=1;fontFamily=Verdana;fontSize=12;align=center;fillColor=#1ba1e2;fontColor=#ffffff;strokeColor=#006EAF;" parent="1" vertex="1">
          <mxGeometry x="490" y="260" width="120" height="60" as="geometry" />
        </mxCell>
        <mxCell id="rYBxTqaCffbAJavjTUmj-13" style="rounded=0;orthogonalLoop=1;jettySize=auto;html=1;exitX=1;exitY=1;exitDx=0;exitDy=0;endArrow=none;endFill=0;" edge="1" parent="1" source="62893188c0fa7362-9" target="rYBxTqaCffbAJavjTUmj-6">
          <mxGeometry relative="1" as="geometry" />
        </mxCell>
        <mxCell id="rYBxTqaCffbAJavjTUmj-16" value="No" style="edgeLabel;html=1;align=center;verticalAlign=middle;resizable=0;points=[];fontSize=11;fontFamily=Helvetica;fontColor=default;" vertex="1" connectable="0" parent="rYBxTqaCffbAJavjTUmj-13">
          <mxGeometry x="-0.237" y="-2" relative="1" as="geometry">
            <mxPoint x="16" y="-13" as="offset" />
          </mxGeometry>
        </mxCell>
        <mxCell id="rYBxTqaCffbAJavjTUmj-14" style="rounded=0;orthogonalLoop=1;jettySize=auto;html=1;strokeColor=default;endArrow=none;endFill=0;" edge="1" parent="1" source="62893188c0fa7362-9" target="rYBxTqaCffbAJavjTUmj-3">
          <mxGeometry relative="1" as="geometry" />
        </mxCell>
        <mxCell id="rYBxTqaCffbAJavjTUmj-15" value="Yes" style="edgeLabel;html=1;align=center;verticalAlign=middle;resizable=0;points=[];fontSize=11;fontFamily=Helvetica;fontColor=default;" vertex="1" connectable="0" parent="rYBxTqaCffbAJavjTUmj-14">
          <mxGeometry x="-0.0424" y="-3" relative="1" as="geometry">
            <mxPoint x="-17" as="offset" />
          </mxGeometry>
        </mxCell>
        <mxCell id="62893188c0fa7362-9" value="&lt;span&gt;Jumlah data yang ditransfer besar?&lt;/span&gt;" style="whiteSpace=wrap;html=1;rounded=1;shadow=1;labelBackgroundColor=none;strokeWidth=1;fontFamily=Verdana;fontSize=12;align=center;fillColor=#1ba1e2;fontColor=#ffffff;strokeColor=#006EAF;" parent="1" vertex="1">
          <mxGeometry x="680" y="260" width="120" height="60" as="geometry" />
        </mxCell>
        <mxCell id="rYBxTqaCffbAJavjTUmj-19" style="edgeStyle=none;shape=connector;rounded=0;orthogonalLoop=1;jettySize=auto;html=1;exitX=0.5;exitY=1;exitDx=0;exitDy=0;entryX=0.5;entryY=0;entryDx=0;entryDy=0;labelBackgroundColor=default;strokeColor=default;align=center;verticalAlign=middle;fontFamily=Helvetica;fontSize=11;fontColor=default;endArrow=none;endFill=0;" edge="1" parent="1" source="62893188c0fa7362-13" target="rYBxTqaCffbAJavjTUmj-17">
          <mxGeometry relative="1" as="geometry" />
        </mxCell>
        <mxCell id="62893188c0fa7362-13" value="&lt;span&gt;Banyaknya kode Javascript?&lt;/span&gt;" style="whiteSpace=wrap;html=1;rounded=1;shadow=1;labelBackgroundColor=none;strokeWidth=1;fontFamily=Verdana;fontSize=12;align=center;fillColor=#1ba1e2;fontColor=#ffffff;strokeColor=#006EAF;" parent="1" vertex="1">
          <mxGeometry x="430" y="365" width="120" height="60" as="geometry" />
        </mxCell>
        <mxCell id="62893188c0fa7362-14" value="Yes" style="rounded=0;html=1;labelBackgroundColor=none;startArrow=none;startFill=0;startSize=5;endArrow=none;endFill=0;endSize=5;jettySize=auto;orthogonalLoop=1;strokeWidth=1;fontFamily=Verdana;fontSize=12" parent="1" source="62893188c0fa7362-2" target="62893188c0fa7362-8" edge="1">
          <mxGeometry x="-0.2" y="-14" relative="1" as="geometry">
            <mxPoint as="offset" />
          </mxGeometry>
        </mxCell>
        <mxCell id="62893188c0fa7362-15" value="No" style="rounded=0;html=1;labelBackgroundColor=none;startArrow=none;startFill=0;startSize=5;endArrow=none;endFill=0;endSize=5;jettySize=auto;orthogonalLoop=1;strokeWidth=1;fontFamily=Verdana;fontSize=12" parent="1" source="62893188c0fa7362-2" target="62893188c0fa7362-9" edge="1">
          <mxGeometry x="-0.2" y="14" relative="1" as="geometry">
            <mxPoint as="offset" />
          </mxGeometry>
        </mxCell>
        <mxCell id="62893188c0fa7362-18" value="Yes" style="rounded=0;html=1;labelBackgroundColor=none;startArrow=none;startFill=0;startSize=5;endArrow=none;endFill=0;endSize=5;jettySize=auto;orthogonalLoop=1;strokeWidth=1;fontFamily=Verdana;fontSize=12" parent="1" source="62893188c0fa7362-20" edge="1">
          <mxGeometry x="-0.2168" y="-14" relative="1" as="geometry">
            <mxPoint as="offset" />
            <mxPoint x="261.73913043478274" y="395.0000000000001" as="targetPoint" />
          </mxGeometry>
        </mxCell>
        <mxCell id="62893188c0fa7362-19" value="&#xa;&lt;span style=&quot;color: rgb(0, 0, 0); font-family: Verdana; font-size: 12px; font-style: normal; font-variant-ligatures: normal; font-variant-caps: normal; font-weight: 400; letter-spacing: normal; orphans: 2; text-align: center; text-indent: 0px; text-transform: none; widows: 2; word-spacing: 0px; -webkit-text-stroke-width: 0px; background-color: rgb(251, 251, 251); text-decoration-thickness: initial; text-decoration-style: initial; text-decoration-color: initial; float: none; display: inline !important;&quot;&gt;No&lt;/span&gt;&#xa;&#xa;" style="rounded=0;html=1;labelBackgroundColor=none;startArrow=none;startFill=0;startSize=5;endArrow=none;endFill=0;endSize=5;jettySize=auto;orthogonalLoop=1;strokeWidth=1;fontFamily=Verdana;fontSize=12" parent="1" source="62893188c0fa7362-8" target="62893188c0fa7362-13" edge="1">
          <mxGeometry x="-0.29" y="12" relative="1" as="geometry">
            <mxPoint as="offset" />
          </mxGeometry>
        </mxCell>
        <mxCell id="62893188c0fa7362-22" value="Refactor, Minify, dan Optimisasi Frontend nya" style="whiteSpace=wrap;html=1;rounded=0;shadow=1;labelBackgroundColor=none;strokeWidth=2;fontFamily=Verdana;fontSize=12;align=center;fillColor=#60a917;fontColor=#ffffff;strokeColor=#2D7600;" parent="1" vertex="1">
          <mxGeometry x="240" y="450" width="120" height="60" as="geometry" />
        </mxCell>
        <mxCell id="62893188c0fa7362-26" value="Yes" style="rounded=0;html=1;labelBackgroundColor=none;startArrow=none;startFill=0;startSize=5;endArrow=none;endFill=0;endSize=5;jettySize=auto;orthogonalLoop=1;strokeWidth=1;fontFamily=Verdana;fontSize=12" parent="1" source="62893188c0fa7362-13" target="62893188c0fa7362-22" edge="1">
          <mxGeometry x="0.0033" y="-12" relative="1" as="geometry">
            <mxPoint as="offset" />
          </mxGeometry>
        </mxCell>
        <mxCell id="rYBxTqaCffbAJavjTUmj-3" value="Beri limitasi data yang ditransfer" style="whiteSpace=wrap;html=1;rounded=0;shadow=1;labelBackgroundColor=none;strokeWidth=2;fontFamily=Verdana;fontSize=12;align=center;fillColor=#60a917;fontColor=#ffffff;strokeColor=#2D7600;" vertex="1" parent="1">
          <mxGeometry x="600" y="365" width="120" height="60" as="geometry" />
        </mxCell>
        <mxCell id="rYBxTqaCffbAJavjTUmj-29" style="edgeStyle=none;shape=connector;rounded=0;orthogonalLoop=1;jettySize=auto;html=1;exitX=0.25;exitY=1;exitDx=0;exitDy=0;labelBackgroundColor=default;strokeColor=default;align=center;verticalAlign=middle;fontFamily=Helvetica;fontSize=11;fontColor=default;endArrow=none;endFill=0;" edge="1" parent="1" source="rYBxTqaCffbAJavjTUmj-6" target="rYBxTqaCffbAJavjTUmj-27">
          <mxGeometry relative="1" as="geometry" />
        </mxCell>
        <mxCell id="rYBxTqaCffbAJavjTUmj-44" style="edgeStyle=none;shape=connector;rounded=0;orthogonalLoop=1;jettySize=auto;html=1;exitX=0.75;exitY=1;exitDx=0;exitDy=0;labelBackgroundColor=default;strokeColor=default;align=center;verticalAlign=middle;fontFamily=Helvetica;fontSize=11;fontColor=default;endArrow=none;endFill=0;" edge="1" parent="1" source="rYBxTqaCffbAJavjTUmj-6" target="rYBxTqaCffbAJavjTUmj-43">
          <mxGeometry relative="1" as="geometry" />
        </mxCell>
        <mxCell id="rYBxTqaCffbAJavjTUmj-6" value="Jumlah TPS Rendah?" style="whiteSpace=wrap;html=1;rounded=1;shadow=1;labelBackgroundColor=none;strokeWidth=1;fontFamily=Verdana;fontSize=12;align=center;fillColor=#1ba1e2;fontColor=#ffffff;strokeColor=#006EAF;" vertex="1" parent="1">
          <mxGeometry x="780" y="365" width="120" height="60" as="geometry" />
        </mxCell>
        <mxCell id="rYBxTqaCffbAJavjTUmj-24" style="edgeStyle=none;shape=connector;rounded=0;orthogonalLoop=1;jettySize=auto;html=1;exitX=0;exitY=1;exitDx=0;exitDy=0;entryX=0.5;entryY=0;entryDx=0;entryDy=0;labelBackgroundColor=default;strokeColor=default;align=center;verticalAlign=middle;fontFamily=Helvetica;fontSize=11;fontColor=default;endArrow=none;endFill=0;" edge="1" parent="1" source="rYBxTqaCffbAJavjTUmj-17" target="rYBxTqaCffbAJavjTUmj-23">
          <mxGeometry relative="1" as="geometry" />
        </mxCell>
        <mxCell id="rYBxTqaCffbAJavjTUmj-38" style="edgeStyle=none;shape=connector;rounded=0;orthogonalLoop=1;jettySize=auto;html=1;exitX=0.75;exitY=1;exitDx=0;exitDy=0;labelBackgroundColor=default;strokeColor=default;align=center;verticalAlign=middle;fontFamily=Helvetica;fontSize=11;fontColor=default;endArrow=none;endFill=0;" edge="1" parent="1" source="rYBxTqaCffbAJavjTUmj-17" target="rYBxTqaCffbAJavjTUmj-36">
          <mxGeometry relative="1" as="geometry" />
        </mxCell>
        <mxCell id="rYBxTqaCffbAJavjTUmj-17" value="Masalah pada koneksi client?" style="whiteSpace=wrap;html=1;rounded=1;shadow=1;labelBackgroundColor=none;strokeWidth=1;fontFamily=Verdana;fontSize=12;align=center;fillColor=#1ba1e2;fontColor=#ffffff;strokeColor=#006EAF;" vertex="1" parent="1">
          <mxGeometry x="440" y="450" width="120" height="60" as="geometry" />
        </mxCell>
        <mxCell id="rYBxTqaCffbAJavjTUmj-18" value="" style="rounded=0;html=1;labelBackgroundColor=none;startArrow=none;startFill=0;startSize=5;endArrow=none;endFill=0;endSize=5;jettySize=auto;orthogonalLoop=1;strokeWidth=1;fontFamily=Verdana;fontSize=12" edge="1" parent="1" source="62893188c0fa7362-8" target="62893188c0fa7362-20">
          <mxGeometry x="-0.2168" y="-14" relative="1" as="geometry">
            <mxPoint as="offset" />
            <mxPoint x="490" y="312" as="sourcePoint" />
            <mxPoint x="261.73913043478274" y="395.0000000000001" as="targetPoint" />
          </mxGeometry>
        </mxCell>
        <mxCell id="62893188c0fa7362-20" value="Compress &amp;amp; minify gambar/video" style="whiteSpace=wrap;html=1;rounded=0;shadow=1;labelBackgroundColor=none;strokeWidth=2;fontFamily=Verdana;fontSize=12;align=center;fillColor=#60a917;fontColor=#ffffff;strokeColor=#2D7600;" parent="1" vertex="1">
          <mxGeometry x="240" y="365" width="120" height="60" as="geometry" />
        </mxCell>
        <mxCell id="rYBxTqaCffbAJavjTUmj-21" value="&lt;br style=&quot;border-color: var(--border-color); color: rgb(0, 0, 0); font-family: Verdana; font-size: 12px; font-style: normal; font-variant-ligatures: normal; font-variant-caps: normal; font-weight: 400; letter-spacing: normal; orphans: 2; text-align: center; text-indent: 0px; text-transform: none; widows: 2; word-spacing: 0px; -webkit-text-stroke-width: 0px; background-color: rgb(251, 251, 251); text-decoration-thickness: initial; text-decoration-style: initial; text-decoration-color: initial;&quot;&gt;&lt;span style=&quot;border-color: var(--border-color); color: rgb(0, 0, 0); font-family: Verdana; font-size: 12px; font-style: normal; font-variant-ligatures: normal; font-variant-caps: normal; font-weight: 400; letter-spacing: normal; orphans: 2; text-align: center; text-indent: 0px; text-transform: none; widows: 2; word-spacing: 0px; -webkit-text-stroke-width: 0px; text-decoration-thickness: initial; text-decoration-style: initial; text-decoration-color: initial; background-color: rgb(251, 251, 251); float: none; display: inline !important;&quot;&gt;No&lt;/span&gt;&lt;br style=&quot;border-color: var(--border-color); color: rgb(0, 0, 0); font-family: Verdana; font-size: 12px; font-style: normal; font-variant-ligatures: normal; font-variant-caps: normal; font-weight: 400; letter-spacing: normal; orphans: 2; text-align: center; text-indent: 0px; text-transform: none; widows: 2; word-spacing: 0px; -webkit-text-stroke-width: 0px; background-color: rgb(251, 251, 251); text-decoration-thickness: initial; text-decoration-style: initial; text-decoration-color: initial;&quot;&gt;" style="text;whiteSpace=wrap;html=1;fontSize=11;fontFamily=Helvetica;fontColor=default;" vertex="1" parent="1">
          <mxGeometry x="500" y="410" width="30" height="40" as="geometry" />
        </mxCell>
        <mxCell id="rYBxTqaCffbAJavjTUmj-22" value="No Issue" style="whiteSpace=wrap;html=1;rounded=0;shadow=1;labelBackgroundColor=none;strokeWidth=2;fontFamily=Verdana;fontSize=12;align=center;fillColor=#60a917;fontColor=#ffffff;strokeColor=#2D7600;" vertex="1" parent="1">
          <mxGeometry x="680" y="170" width="120" height="60" as="geometry" />
        </mxCell>
        <mxCell id="rYBxTqaCffbAJavjTUmj-23" value="JANGAN BUKA WEB NYA DI KAMPUS" style="whiteSpace=wrap;html=1;rounded=0;shadow=1;labelBackgroundColor=none;strokeWidth=2;fontFamily=Verdana;fontSize=12;align=center;fillColor=#60a917;fontColor=#ffffff;strokeColor=#2D7600;" vertex="1" parent="1">
          <mxGeometry x="310" y="540" width="120" height="60" as="geometry" />
        </mxCell>
        <mxCell id="rYBxTqaCffbAJavjTUmj-25" value="&lt;span style=&quot;color: rgb(0, 0, 0); font-family: Verdana; font-size: 12px; font-style: normal; font-variant-ligatures: normal; font-variant-caps: normal; font-weight: 400; letter-spacing: normal; orphans: 2; text-align: center; text-indent: 0px; text-transform: none; widows: 2; word-spacing: 0px; -webkit-text-stroke-width: 0px; background-color: rgb(251, 251, 251); text-decoration-thickness: initial; text-decoration-style: initial; text-decoration-color: initial; float: none; display: inline !important;&quot;&gt;Yes&lt;/span&gt;" style="text;whiteSpace=wrap;html=1;fontSize=11;fontFamily=Helvetica;fontColor=default;" vertex="1" parent="1">
          <mxGeometry x="400" y="500" width="50" height="40" as="geometry" />
        </mxCell>
        <mxCell id="rYBxTqaCffbAJavjTUmj-35" style="edgeStyle=none;shape=connector;rounded=0;orthogonalLoop=1;jettySize=auto;html=1;exitX=1;exitY=1;exitDx=0;exitDy=0;labelBackgroundColor=default;strokeColor=default;align=center;verticalAlign=middle;fontFamily=Helvetica;fontSize=11;fontColor=default;endArrow=none;endFill=0;" edge="1" parent="1" source="rYBxTqaCffbAJavjTUmj-27" target="rYBxTqaCffbAJavjTUmj-34">
          <mxGeometry relative="1" as="geometry" />
        </mxCell>
        <mxCell id="rYBxTqaCffbAJavjTUmj-37" style="edgeStyle=none;shape=connector;rounded=0;orthogonalLoop=1;jettySize=auto;html=1;exitX=0.25;exitY=1;exitDx=0;exitDy=0;labelBackgroundColor=default;strokeColor=default;align=center;verticalAlign=middle;fontFamily=Helvetica;fontSize=11;fontColor=default;endArrow=none;endFill=0;" edge="1" parent="1" source="rYBxTqaCffbAJavjTUmj-27" target="rYBxTqaCffbAJavjTUmj-36">
          <mxGeometry relative="1" as="geometry" />
        </mxCell>
        <mxCell id="rYBxTqaCffbAJavjTUmj-27" value="Masalah pada database?" style="whiteSpace=wrap;html=1;rounded=1;shadow=1;labelBackgroundColor=none;strokeWidth=1;fontFamily=Verdana;fontSize=12;align=center;fillColor=#1ba1e2;fontColor=#ffffff;strokeColor=#006EAF;" vertex="1" parent="1">
          <mxGeometry x="640" y="450" width="120" height="60" as="geometry" />
        </mxCell>
        <mxCell id="rYBxTqaCffbAJavjTUmj-30" value="&lt;span style=&quot;color: rgb(0, 0, 0); font-family: Verdana; font-size: 12px; font-style: normal; font-variant-ligatures: normal; font-variant-caps: normal; font-weight: 400; letter-spacing: normal; orphans: 2; text-align: center; text-indent: 0px; text-transform: none; widows: 2; word-spacing: 0px; -webkit-text-stroke-width: 0px; background-color: rgb(251, 251, 251); text-decoration-thickness: initial; text-decoration-style: initial; text-decoration-color: initial; float: none; display: inline !important;&quot;&gt;Yes&lt;/span&gt;" style="text;whiteSpace=wrap;html=1;fontSize=11;fontFamily=Helvetica;fontColor=default;" vertex="1" parent="1">
          <mxGeometry x="750" y="420" width="30" height="30" as="geometry" />
        </mxCell>
        <mxCell id="rYBxTqaCffbAJavjTUmj-47" style="edgeStyle=none;shape=connector;rounded=0;orthogonalLoop=1;jettySize=auto;html=1;exitX=0.25;exitY=1;exitDx=0;exitDy=0;labelBackgroundColor=default;strokeColor=default;align=center;verticalAlign=middle;fontFamily=Helvetica;fontSize=11;fontColor=default;endArrow=none;endFill=0;" edge="1" parent="1" source="rYBxTqaCffbAJavjTUmj-34" target="rYBxTqaCffbAJavjTUmj-46">
          <mxGeometry relative="1" as="geometry" />
        </mxCell>
        <mxCell id="rYBxTqaCffbAJavjTUmj-49" style="edgeStyle=none;shape=connector;rounded=0;orthogonalLoop=1;jettySize=auto;html=1;exitX=0.75;exitY=1;exitDx=0;exitDy=0;labelBackgroundColor=default;strokeColor=default;align=center;verticalAlign=middle;fontFamily=Helvetica;fontSize=11;fontColor=default;endArrow=none;endFill=0;" edge="1" parent="1" source="rYBxTqaCffbAJavjTUmj-34" target="rYBxTqaCffbAJavjTUmj-48">
          <mxGeometry relative="1" as="geometry" />
        </mxCell>
        <mxCell id="rYBxTqaCffbAJavjTUmj-34" value="Data di Database telah banyak?" style="whiteSpace=wrap;html=1;rounded=1;shadow=1;labelBackgroundColor=none;strokeWidth=1;fontFamily=Verdana;fontSize=12;align=center;fillColor=#1ba1e2;fontColor=#ffffff;strokeColor=#006EAF;" vertex="1" parent="1">
          <mxGeometry x="770" y="540" width="120" height="60" as="geometry" />
        </mxCell>
        <mxCell id="rYBxTqaCffbAJavjTUmj-64" style="edgeStyle=none;shape=connector;rounded=0;orthogonalLoop=1;jettySize=auto;html=1;exitX=0.75;exitY=1;exitDx=0;exitDy=0;entryX=0.75;entryY=0;entryDx=0;entryDy=0;labelBackgroundColor=default;strokeColor=default;align=center;verticalAlign=middle;fontFamily=Helvetica;fontSize=11;fontColor=default;endArrow=none;endFill=0;" edge="1" parent="1" source="rYBxTqaCffbAJavjTUmj-36" target="rYBxTqaCffbAJavjTUmj-63">
          <mxGeometry relative="1" as="geometry" />
        </mxCell>
        <mxCell id="rYBxTqaCffbAJavjTUmj-65" style="edgeStyle=none;shape=connector;rounded=0;orthogonalLoop=1;jettySize=auto;html=1;exitX=0.25;exitY=1;exitDx=0;exitDy=0;entryX=0.75;entryY=0;entryDx=0;entryDy=0;labelBackgroundColor=default;strokeColor=default;align=center;verticalAlign=middle;fontFamily=Helvetica;fontSize=11;fontColor=default;endArrow=none;endFill=0;" edge="1" parent="1" source="rYBxTqaCffbAJavjTUmj-36" target="rYBxTqaCffbAJavjTUmj-62">
          <mxGeometry relative="1" as="geometry" />
        </mxCell>
        <mxCell id="rYBxTqaCffbAJavjTUmj-36" value="Masalah pada server?" style="whiteSpace=wrap;html=1;rounded=1;shadow=1;labelBackgroundColor=none;strokeWidth=1;fontFamily=Verdana;fontSize=12;align=center;fillColor=#1ba1e2;fontColor=#ffffff;strokeColor=#006EAF;" vertex="1" parent="1">
          <mxGeometry x="540" y="540" width="120" height="60" as="geometry" />
        </mxCell>
        <mxCell id="rYBxTqaCffbAJavjTUmj-40" value="" style="edgeStyle=none;shape=connector;rounded=0;orthogonalLoop=1;jettySize=auto;html=1;labelBackgroundColor=default;strokeColor=default;align=center;verticalAlign=middle;fontFamily=Helvetica;fontSize=11;fontColor=default;endArrow=none;endFill=0;" edge="1" parent="1" source="rYBxTqaCffbAJavjTUmj-39" target="rYBxTqaCffbAJavjTUmj-36">
          <mxGeometry relative="1" as="geometry" />
        </mxCell>
        <mxCell id="rYBxTqaCffbAJavjTUmj-39" value="&lt;br style=&quot;border-color: var(--border-color); color: rgb(0, 0, 0); font-family: Verdana; font-size: 12px; font-style: normal; font-variant-ligatures: normal; font-variant-caps: normal; font-weight: 400; letter-spacing: normal; orphans: 2; text-align: center; text-indent: 0px; text-transform: none; widows: 2; word-spacing: 0px; -webkit-text-stroke-width: 0px; background-color: rgb(251, 251, 251); text-decoration-thickness: initial; text-decoration-style: initial; text-decoration-color: initial;&quot;&gt;&lt;span style=&quot;border-color: var(--border-color); color: rgb(0, 0, 0); font-family: Verdana; font-size: 12px; font-style: normal; font-variant-ligatures: normal; font-variant-caps: normal; font-weight: 400; letter-spacing: normal; orphans: 2; text-align: center; text-indent: 0px; text-transform: none; widows: 2; word-spacing: 0px; -webkit-text-stroke-width: 0px; text-decoration-thickness: initial; text-decoration-style: initial; text-decoration-color: initial; background-color: rgb(251, 251, 251); float: none; display: inline !important;&quot;&gt;No&lt;/span&gt;&lt;br style=&quot;border-color: var(--border-color); color: rgb(0, 0, 0); font-family: Verdana; font-size: 12px; font-style: normal; font-variant-ligatures: normal; font-variant-caps: normal; font-weight: 400; letter-spacing: normal; orphans: 2; text-align: center; text-indent: 0px; text-transform: none; widows: 2; word-spacing: 0px; -webkit-text-stroke-width: 0px; background-color: rgb(251, 251, 251); text-decoration-thickness: initial; text-decoration-style: initial; text-decoration-color: initial;&quot;&gt;" style="text;whiteSpace=wrap;html=1;fontSize=11;fontFamily=Helvetica;fontColor=default;" vertex="1" parent="1">
          <mxGeometry x="555" y="500" width="30" height="40" as="geometry" />
        </mxCell>
        <mxCell id="rYBxTqaCffbAJavjTUmj-41" value="&lt;span style=&quot;color: rgb(0, 0, 0); font-family: Verdana; font-size: 12px; font-style: normal; font-variant-ligatures: normal; font-variant-caps: normal; font-weight: 400; letter-spacing: normal; orphans: 2; text-align: center; text-indent: 0px; text-transform: none; widows: 2; word-spacing: 0px; -webkit-text-stroke-width: 0px; background-color: rgb(251, 251, 251); text-decoration-thickness: initial; text-decoration-style: initial; text-decoration-color: initial; float: none; display: inline !important;&quot;&gt;Yes&lt;/span&gt;" style="text;whiteSpace=wrap;html=1;fontSize=11;fontFamily=Helvetica;fontColor=default;" vertex="1" parent="1">
          <mxGeometry x="780" y="500" width="30" height="30" as="geometry" />
        </mxCell>
        <mxCell id="rYBxTqaCffbAJavjTUmj-42" value="&lt;br style=&quot;border-color: var(--border-color); color: rgb(0, 0, 0); font-family: Verdana; font-size: 12px; font-style: normal; font-variant-ligatures: normal; font-variant-caps: normal; font-weight: 400; letter-spacing: normal; orphans: 2; text-align: center; text-indent: 0px; text-transform: none; widows: 2; word-spacing: 0px; -webkit-text-stroke-width: 0px; background-color: rgb(251, 251, 251); text-decoration-thickness: initial; text-decoration-style: initial; text-decoration-color: initial;&quot;&gt;&lt;span style=&quot;border-color: var(--border-color); color: rgb(0, 0, 0); font-family: Verdana; font-size: 12px; font-style: normal; font-variant-ligatures: normal; font-variant-caps: normal; font-weight: 400; letter-spacing: normal; orphans: 2; text-align: center; text-indent: 0px; text-transform: none; widows: 2; word-spacing: 0px; -webkit-text-stroke-width: 0px; text-decoration-thickness: initial; text-decoration-style: initial; text-decoration-color: initial; background-color: rgb(251, 251, 251); float: none; display: inline !important;&quot;&gt;No&lt;/span&gt;&lt;br style=&quot;border-color: var(--border-color); color: rgb(0, 0, 0); font-family: Verdana; font-size: 12px; font-style: normal; font-variant-ligatures: normal; font-variant-caps: normal; font-weight: 400; letter-spacing: normal; orphans: 2; text-align: center; text-indent: 0px; text-transform: none; widows: 2; word-spacing: 0px; -webkit-text-stroke-width: 0px; background-color: rgb(251, 251, 251); text-decoration-thickness: initial; text-decoration-style: initial; text-decoration-color: initial;&quot;&gt;" style="text;whiteSpace=wrap;html=1;fontSize=11;fontFamily=Helvetica;fontColor=default;" vertex="1" parent="1">
          <mxGeometry x="655" y="500" width="35" height="40" as="geometry" />
        </mxCell>
        <mxCell id="rYBxTqaCffbAJavjTUmj-43" value="No Issue" style="whiteSpace=wrap;html=1;rounded=0;shadow=1;labelBackgroundColor=none;strokeWidth=2;fontFamily=Verdana;fontSize=12;align=center;fillColor=#60a917;fontColor=#ffffff;strokeColor=#2D7600;" vertex="1" parent="1">
          <mxGeometry x="840" y="450" width="120" height="60" as="geometry" />
        </mxCell>
        <mxCell id="rYBxTqaCffbAJavjTUmj-45" value="&lt;br style=&quot;border-color: var(--border-color); color: rgb(0, 0, 0); font-family: Verdana; font-size: 12px; font-style: normal; font-variant-ligatures: normal; font-variant-caps: normal; font-weight: 400; letter-spacing: normal; orphans: 2; text-align: center; text-indent: 0px; text-transform: none; widows: 2; word-spacing: 0px; -webkit-text-stroke-width: 0px; background-color: rgb(251, 251, 251); text-decoration-thickness: initial; text-decoration-style: initial; text-decoration-color: initial;&quot;&gt;&lt;span style=&quot;border-color: var(--border-color); color: rgb(0, 0, 0); font-family: Verdana; font-size: 12px; font-style: normal; font-variant-ligatures: normal; font-variant-caps: normal; font-weight: 400; letter-spacing: normal; orphans: 2; text-align: center; text-indent: 0px; text-transform: none; widows: 2; word-spacing: 0px; -webkit-text-stroke-width: 0px; text-decoration-thickness: initial; text-decoration-style: initial; text-decoration-color: initial; background-color: rgb(251, 251, 251); float: none; display: inline !important;&quot;&gt;No&lt;/span&gt;&lt;br style=&quot;border-color: var(--border-color); color: rgb(0, 0, 0); font-family: Verdana; font-size: 12px; font-style: normal; font-variant-ligatures: normal; font-variant-caps: normal; font-weight: 400; letter-spacing: normal; orphans: 2; text-align: center; text-indent: 0px; text-transform: none; widows: 2; word-spacing: 0px; -webkit-text-stroke-width: 0px; background-color: rgb(251, 251, 251); text-decoration-thickness: initial; text-decoration-style: initial; text-decoration-color: initial;&quot;&gt;" style="text;whiteSpace=wrap;html=1;fontSize=11;fontFamily=Helvetica;fontColor=default;" vertex="1" parent="1">
          <mxGeometry x="882.5" y="415" width="35" height="40" as="geometry" />
        </mxCell>
        <mxCell id="rYBxTqaCffbAJavjTUmj-56" style="edgeStyle=none;shape=connector;rounded=0;orthogonalLoop=1;jettySize=auto;html=1;exitX=0.25;exitY=1;exitDx=0;exitDy=0;labelBackgroundColor=default;strokeColor=default;align=center;verticalAlign=middle;fontFamily=Helvetica;fontSize=11;fontColor=default;endArrow=none;endFill=0;" edge="1" parent="1" source="rYBxTqaCffbAJavjTUmj-46" target="rYBxTqaCffbAJavjTUmj-55">
          <mxGeometry relative="1" as="geometry" />
        </mxCell>
        <mxCell id="rYBxTqaCffbAJavjTUmj-58" style="edgeStyle=none;shape=connector;rounded=0;orthogonalLoop=1;jettySize=auto;html=1;exitX=0.75;exitY=1;exitDx=0;exitDy=0;entryX=0.25;entryY=0;entryDx=0;entryDy=0;labelBackgroundColor=default;strokeColor=default;align=center;verticalAlign=middle;fontFamily=Helvetica;fontSize=11;fontColor=default;endArrow=none;endFill=0;" edge="1" parent="1" source="rYBxTqaCffbAJavjTUmj-46" target="rYBxTqaCffbAJavjTUmj-54">
          <mxGeometry relative="1" as="geometry" />
        </mxCell>
        <mxCell id="rYBxTqaCffbAJavjTUmj-46" value="Data nya sering ada perubahan?" style="whiteSpace=wrap;html=1;rounded=1;shadow=1;labelBackgroundColor=none;strokeWidth=1;fontFamily=Verdana;fontSize=12;align=center;fillColor=#1ba1e2;fontColor=#ffffff;strokeColor=#006EAF;" vertex="1" parent="1">
          <mxGeometry x="730" y="640" width="120" height="60" as="geometry" />
        </mxCell>
        <mxCell id="rYBxTqaCffbAJavjTUmj-48" value="Restart Database Service" style="whiteSpace=wrap;html=1;rounded=0;shadow=1;labelBackgroundColor=none;strokeWidth=2;fontFamily=Verdana;fontSize=12;align=center;fillColor=#60a917;fontColor=#ffffff;strokeColor=#2D7600;" vertex="1" parent="1">
          <mxGeometry x="920" y="640" width="120" height="60" as="geometry" />
        </mxCell>
        <mxCell id="rYBxTqaCffbAJavjTUmj-50" value="&lt;span style=&quot;color: rgb(0, 0, 0); font-family: Verdana; font-size: 12px; font-style: normal; font-variant-ligatures: normal; font-variant-caps: normal; font-weight: 400; letter-spacing: normal; orphans: 2; text-align: center; text-indent: 0px; text-transform: none; widows: 2; word-spacing: 0px; -webkit-text-stroke-width: 0px; background-color: rgb(251, 251, 251); text-decoration-thickness: initial; text-decoration-style: initial; text-decoration-color: initial; float: none; display: inline !important;&quot;&gt;Yes&lt;/span&gt;" style="text;whiteSpace=wrap;html=1;fontSize=11;fontFamily=Helvetica;fontColor=default;" vertex="1" parent="1">
          <mxGeometry x="770" y="610" width="30" height="30" as="geometry" />
        </mxCell>
        <mxCell id="rYBxTqaCffbAJavjTUmj-51" value="&lt;br style=&quot;border-color: var(--border-color); color: rgb(0, 0, 0); font-family: Verdana; font-size: 12px; font-style: normal; font-variant-ligatures: normal; font-variant-caps: normal; font-weight: 400; letter-spacing: normal; orphans: 2; text-align: center; text-indent: 0px; text-transform: none; widows: 2; word-spacing: 0px; -webkit-text-stroke-width: 0px; background-color: rgb(251, 251, 251); text-decoration-thickness: initial; text-decoration-style: initial; text-decoration-color: initial;&quot;&gt;&lt;span style=&quot;border-color: var(--border-color); color: rgb(0, 0, 0); font-family: Verdana; font-size: 12px; font-style: normal; font-variant-ligatures: normal; font-variant-caps: normal; font-weight: 400; letter-spacing: normal; orphans: 2; text-align: center; text-indent: 0px; text-transform: none; widows: 2; word-spacing: 0px; -webkit-text-stroke-width: 0px; text-decoration-thickness: initial; text-decoration-style: initial; text-decoration-color: initial; background-color: rgb(251, 251, 251); float: none; display: inline !important;&quot;&gt;No&lt;/span&gt;&lt;br style=&quot;border-color: var(--border-color); color: rgb(0, 0, 0); font-family: Verdana; font-size: 12px; font-style: normal; font-variant-ligatures: normal; font-variant-caps: normal; font-weight: 400; letter-spacing: normal; orphans: 2; text-align: center; text-indent: 0px; text-transform: none; widows: 2; word-spacing: 0px; -webkit-text-stroke-width: 0px; background-color: rgb(251, 251, 251); text-decoration-thickness: initial; text-decoration-style: initial; text-decoration-color: initial;&quot;&gt;" style="text;whiteSpace=wrap;html=1;fontSize=11;fontFamily=Helvetica;fontColor=default;" vertex="1" parent="1">
          <mxGeometry x="900" y="590" width="35" height="40" as="geometry" />
        </mxCell>
        <mxCell id="rYBxTqaCffbAJavjTUmj-54" value="Implementasi Metode caching" style="whiteSpace=wrap;html=1;rounded=0;shadow=1;labelBackgroundColor=none;strokeWidth=2;fontFamily=Verdana;fontSize=12;align=center;fillColor=#60a917;fontColor=#ffffff;strokeColor=#2D7600;" vertex="1" parent="1">
          <mxGeometry x="850" y="730" width="120" height="60" as="geometry" />
        </mxCell>
        <mxCell id="rYBxTqaCffbAJavjTUmj-55" value="Optimisasi Database (Indexing)" style="whiteSpace=wrap;html=1;rounded=0;shadow=1;labelBackgroundColor=none;strokeWidth=2;fontFamily=Verdana;fontSize=12;align=center;fillColor=#60a917;fontColor=#ffffff;strokeColor=#2D7600;" vertex="1" parent="1">
          <mxGeometry x="680" y="730" width="120" height="60" as="geometry" />
        </mxCell>
        <mxCell id="rYBxTqaCffbAJavjTUmj-60" value="&lt;span style=&quot;color: rgb(0, 0, 0); font-family: Verdana; font-size: 12px; font-style: normal; font-variant-ligatures: normal; font-variant-caps: normal; font-weight: 400; letter-spacing: normal; orphans: 2; text-align: center; text-indent: 0px; text-transform: none; widows: 2; word-spacing: 0px; -webkit-text-stroke-width: 0px; background-color: rgb(251, 251, 251); text-decoration-thickness: initial; text-decoration-style: initial; text-decoration-color: initial; float: none; display: inline !important;&quot;&gt;Yes&lt;/span&gt;" style="text;whiteSpace=wrap;html=1;fontSize=11;fontFamily=Helvetica;fontColor=default;" vertex="1" parent="1">
          <mxGeometry x="725" y="700" width="30" height="30" as="geometry" />
        </mxCell>
        <mxCell id="rYBxTqaCffbAJavjTUmj-61" value="&lt;br style=&quot;border-color: var(--border-color); color: rgb(0, 0, 0); font-family: Verdana; font-size: 12px; font-style: normal; font-variant-ligatures: normal; font-variant-caps: normal; font-weight: 400; letter-spacing: normal; orphans: 2; text-align: center; text-indent: 0px; text-transform: none; widows: 2; word-spacing: 0px; -webkit-text-stroke-width: 0px; background-color: rgb(251, 251, 251); text-decoration-thickness: initial; text-decoration-style: initial; text-decoration-color: initial;&quot;&gt;&lt;span style=&quot;border-color: var(--border-color); color: rgb(0, 0, 0); font-family: Verdana; font-size: 12px; font-style: normal; font-variant-ligatures: normal; font-variant-caps: normal; font-weight: 400; letter-spacing: normal; orphans: 2; text-align: center; text-indent: 0px; text-transform: none; widows: 2; word-spacing: 0px; -webkit-text-stroke-width: 0px; text-decoration-thickness: initial; text-decoration-style: initial; text-decoration-color: initial; background-color: rgb(251, 251, 251); float: none; display: inline !important;&quot;&gt;No&lt;/span&gt;&lt;br style=&quot;border-color: var(--border-color); color: rgb(0, 0, 0); font-family: Verdana; font-size: 12px; font-style: normal; font-variant-ligatures: normal; font-variant-caps: normal; font-weight: 400; letter-spacing: normal; orphans: 2; text-align: center; text-indent: 0px; text-transform: none; widows: 2; word-spacing: 0px; -webkit-text-stroke-width: 0px; background-color: rgb(251, 251, 251); text-decoration-thickness: initial; text-decoration-style: initial; text-decoration-color: initial;&quot;&gt;" style="text;whiteSpace=wrap;html=1;fontSize=11;fontFamily=Helvetica;fontColor=default;" vertex="1" parent="1">
          <mxGeometry x="855" y="680" width="35" height="40" as="geometry" />
        </mxCell>
        <mxCell id="rYBxTqaCffbAJavjTUmj-77" style="edgeStyle=none;shape=connector;rounded=0;orthogonalLoop=1;jettySize=auto;html=1;exitX=0.25;exitY=1;exitDx=0;exitDy=0;entryX=0.75;entryY=0;entryDx=0;entryDy=0;labelBackgroundColor=default;strokeColor=default;align=center;verticalAlign=middle;fontFamily=Helvetica;fontSize=11;fontColor=default;endArrow=none;endFill=0;" edge="1" parent="1" source="rYBxTqaCffbAJavjTUmj-62" target="rYBxTqaCffbAJavjTUmj-66">
          <mxGeometry relative="1" as="geometry" />
        </mxCell>
        <mxCell id="rYBxTqaCffbAJavjTUmj-78" style="edgeStyle=none;shape=connector;rounded=0;orthogonalLoop=1;jettySize=auto;html=1;exitX=0.75;exitY=1;exitDx=0;exitDy=0;entryX=0;entryY=1;entryDx=0;entryDy=0;labelBackgroundColor=default;strokeColor=default;align=center;verticalAlign=middle;fontFamily=Helvetica;fontSize=11;fontColor=default;endArrow=none;endFill=0;" edge="1" parent="1" source="rYBxTqaCffbAJavjTUmj-62" target="rYBxTqaCffbAJavjTUmj-76">
          <mxGeometry relative="1" as="geometry" />
        </mxCell>
        <mxCell id="rYBxTqaCffbAJavjTUmj-62" value="Ada services yang mati?" style="whiteSpace=wrap;html=1;rounded=1;shadow=1;labelBackgroundColor=none;strokeWidth=1;fontFamily=Verdana;fontSize=12;align=center;fillColor=#1ba1e2;fontColor=#ffffff;strokeColor=#006EAF;" vertex="1" parent="1">
          <mxGeometry x="380" y="640" width="120" height="60" as="geometry" />
        </mxCell>
        <mxCell id="rYBxTqaCffbAJavjTUmj-63" value="No Issue" style="whiteSpace=wrap;html=1;rounded=0;shadow=1;labelBackgroundColor=none;strokeWidth=2;fontFamily=Verdana;fontSize=12;align=center;fillColor=#60a917;fontColor=#ffffff;strokeColor=#2D7600;" vertex="1" parent="1">
          <mxGeometry x="570" y="640" width="120" height="60" as="geometry" />
        </mxCell>
        <mxCell id="rYBxTqaCffbAJavjTUmj-66" value="Restart service yang mati" style="whiteSpace=wrap;html=1;rounded=0;shadow=1;labelBackgroundColor=none;strokeWidth=2;fontFamily=Verdana;fontSize=12;align=center;fillColor=#60a917;fontColor=#ffffff;strokeColor=#2D7600;" vertex="1" parent="1">
          <mxGeometry x="260" y="740" width="120" height="60" as="geometry" />
        </mxCell>
        <mxCell id="rYBxTqaCffbAJavjTUmj-68" value="&lt;br style=&quot;border-color: var(--border-color); color: rgb(0, 0, 0); font-family: Verdana; font-size: 12px; font-style: normal; font-variant-ligatures: normal; font-variant-caps: normal; font-weight: 400; letter-spacing: normal; orphans: 2; text-align: center; text-indent: 0px; text-transform: none; widows: 2; word-spacing: 0px; -webkit-text-stroke-width: 0px; background-color: rgb(251, 251, 251); text-decoration-thickness: initial; text-decoration-style: initial; text-decoration-color: initial;&quot;&gt;&lt;span style=&quot;border-color: var(--border-color); color: rgb(0, 0, 0); font-family: Verdana; font-size: 12px; font-style: normal; font-variant-ligatures: normal; font-variant-caps: normal; font-weight: 400; letter-spacing: normal; orphans: 2; text-align: center; text-indent: 0px; text-transform: none; widows: 2; word-spacing: 0px; -webkit-text-stroke-width: 0px; text-decoration-thickness: initial; text-decoration-style: initial; text-decoration-color: initial; background-color: rgb(251, 251, 251); float: none; display: inline !important;&quot;&gt;No&lt;/span&gt;&lt;br style=&quot;border-color: var(--border-color); color: rgb(0, 0, 0); font-family: Verdana; font-size: 12px; font-style: normal; font-variant-ligatures: normal; font-variant-caps: normal; font-weight: 400; letter-spacing: normal; orphans: 2; text-align: center; text-indent: 0px; text-transform: none; widows: 2; word-spacing: 0px; -webkit-text-stroke-width: 0px; background-color: rgb(251, 251, 251); text-decoration-thickness: initial; text-decoration-style: initial; text-decoration-color: initial;&quot;&gt;" style="text;whiteSpace=wrap;html=1;fontSize=11;fontFamily=Helvetica;fontColor=default;" vertex="1" parent="1">
          <mxGeometry x="655" y="590" width="30" height="40" as="geometry" />
        </mxCell>
        <mxCell id="rYBxTqaCffbAJavjTUmj-69" value="&lt;span style=&quot;color: rgb(0, 0, 0); font-family: Verdana; font-size: 12px; font-style: normal; font-variant-ligatures: normal; font-variant-caps: normal; font-weight: 400; letter-spacing: normal; orphans: 2; text-align: center; text-indent: 0px; text-transform: none; widows: 2; word-spacing: 0px; -webkit-text-stroke-width: 0px; background-color: rgb(251, 251, 251); text-decoration-thickness: initial; text-decoration-style: initial; text-decoration-color: initial; float: none; display: inline !important;&quot;&gt;Yes&lt;/span&gt;" style="text;whiteSpace=wrap;html=1;fontSize=11;fontFamily=Helvetica;fontColor=default;" vertex="1" parent="1">
          <mxGeometry x="490" y="595" width="30" height="30" as="geometry" />
        </mxCell>
        <mxCell id="rYBxTqaCffbAJavjTUmj-70" value="Yes" style="text;whiteSpace=wrap;html=1;fontSize=11;fontFamily=Helvetica;fontColor=default;" vertex="1" parent="1">
          <mxGeometry x="352.5" y="690" width="35" height="30" as="geometry" />
        </mxCell>
        <mxCell id="rYBxTqaCffbAJavjTUmj-73" value="Penggunaan CPU dan/atau MEM tinggi?" style="whiteSpace=wrap;html=1;rounded=1;shadow=1;labelBackgroundColor=none;strokeWidth=1;fontFamily=Verdana;fontSize=12;align=center;fillColor=#1ba1e2;fontColor=#ffffff;strokeColor=#006EAF;" vertex="1" parent="1">
          <mxGeometry x="455" y="730" width="120" height="60" as="geometry" />
        </mxCell>
        <mxCell id="rYBxTqaCffbAJavjTUmj-76" value="&lt;span style=&quot;color: rgb(0, 0, 0); font-family: Verdana; font-size: 12px; font-style: normal; font-variant-ligatures: normal; font-variant-caps: normal; font-weight: 400; letter-spacing: normal; orphans: 2; text-align: center; text-indent: 0px; text-transform: none; widows: 2; word-spacing: 0px; -webkit-text-stroke-width: 0px; background-color: rgb(251, 251, 251); text-decoration-thickness: initial; text-decoration-style: initial; text-decoration-color: initial; float: none; display: inline !important;&quot;&gt;No&lt;/span&gt;" style="text;whiteSpace=wrap;html=1;fontSize=11;fontFamily=Helvetica;fontColor=default;" vertex="1" parent="1">
          <mxGeometry x="500" y="700" width="30" height="30" as="geometry" />
        </mxCell>
        <mxCell id="rYBxTqaCffbAJavjTUmj-112" style="edgeStyle=none;shape=connector;rounded=0;orthogonalLoop=1;jettySize=auto;html=1;exitX=0.25;exitY=1;exitDx=0;exitDy=0;labelBackgroundColor=default;strokeColor=default;align=center;verticalAlign=middle;fontFamily=Helvetica;fontSize=11;fontColor=default;endArrow=none;endFill=0;" edge="1" parent="1" source="rYBxTqaCffbAJavjTUmj-79" target="rYBxTqaCffbAJavjTUmj-111">
          <mxGeometry relative="1" as="geometry" />
        </mxCell>
        <mxCell id="rYBxTqaCffbAJavjTUmj-115" style="edgeStyle=none;shape=connector;rounded=0;orthogonalLoop=1;jettySize=auto;html=1;exitX=1;exitY=0.75;exitDx=0;exitDy=0;entryX=0;entryY=0.75;entryDx=0;entryDy=0;labelBackgroundColor=default;strokeColor=default;align=center;verticalAlign=middle;fontFamily=Helvetica;fontSize=11;fontColor=default;endArrow=none;endFill=0;" edge="1" parent="1" source="rYBxTqaCffbAJavjTUmj-79" target="rYBxTqaCffbAJavjTUmj-114">
          <mxGeometry relative="1" as="geometry" />
        </mxCell>
        <mxCell id="rYBxTqaCffbAJavjTUmj-79" value="Budget Memadai?" style="whiteSpace=wrap;html=1;rounded=1;shadow=1;labelBackgroundColor=none;strokeWidth=1;fontFamily=Verdana;fontSize=12;align=center;fillColor=#1ba1e2;fontColor=#ffffff;strokeColor=#006EAF;" vertex="1" parent="1">
          <mxGeometry x="555" y="820" width="120" height="60" as="geometry" />
        </mxCell>
        <mxCell id="rYBxTqaCffbAJavjTUmj-81" style="edgeStyle=none;shape=connector;rounded=0;orthogonalLoop=1;jettySize=auto;html=1;exitX=0.75;exitY=1;exitDx=0;exitDy=0;entryX=0.288;entryY=-0.004;entryDx=0;entryDy=0;entryPerimeter=0;labelBackgroundColor=default;strokeColor=default;align=center;verticalAlign=middle;fontFamily=Helvetica;fontSize=11;fontColor=default;endArrow=none;endFill=0;" edge="1" parent="1" source="rYBxTqaCffbAJavjTUmj-73" target="rYBxTqaCffbAJavjTUmj-79">
          <mxGeometry relative="1" as="geometry" />
        </mxCell>
        <mxCell id="rYBxTqaCffbAJavjTUmj-91" style="edgeStyle=none;shape=connector;rounded=0;orthogonalLoop=1;jettySize=auto;html=1;exitX=0.25;exitY=1;exitDx=0;exitDy=0;labelBackgroundColor=default;strokeColor=default;align=center;verticalAlign=middle;fontFamily=Helvetica;fontSize=11;fontColor=default;endArrow=none;endFill=0;" edge="1" parent="1" source="rYBxTqaCffbAJavjTUmj-83" target="rYBxTqaCffbAJavjTUmj-89">
          <mxGeometry relative="1" as="geometry" />
        </mxCell>
        <mxCell id="rYBxTqaCffbAJavjTUmj-93" style="edgeStyle=none;shape=connector;rounded=0;orthogonalLoop=1;jettySize=auto;html=1;exitX=0.75;exitY=1;exitDx=0;exitDy=0;labelBackgroundColor=default;strokeColor=default;align=center;verticalAlign=middle;fontFamily=Helvetica;fontSize=11;fontColor=default;endArrow=none;endFill=0;" edge="1" parent="1" source="rYBxTqaCffbAJavjTUmj-83" target="rYBxTqaCffbAJavjTUmj-92">
          <mxGeometry relative="1" as="geometry" />
        </mxCell>
        <mxCell id="rYBxTqaCffbAJavjTUmj-83" value="Masalah koneksi pada server?" style="whiteSpace=wrap;html=1;rounded=1;shadow=1;labelBackgroundColor=none;strokeWidth=1;fontFamily=Verdana;fontSize=12;align=center;fillColor=#1ba1e2;fontColor=#ffffff;strokeColor=#006EAF;" vertex="1" parent="1">
          <mxGeometry x="360" y="820" width="120" height="60" as="geometry" />
        </mxCell>
        <mxCell id="rYBxTqaCffbAJavjTUmj-84" style="edgeStyle=none;shape=connector;rounded=0;orthogonalLoop=1;jettySize=auto;html=1;exitX=0.25;exitY=1;exitDx=0;exitDy=0;entryX=0.733;entryY=0.025;entryDx=0;entryDy=0;entryPerimeter=0;labelBackgroundColor=default;strokeColor=default;align=center;verticalAlign=middle;fontFamily=Helvetica;fontSize=11;fontColor=default;endArrow=none;endFill=0;" edge="1" parent="1" source="rYBxTqaCffbAJavjTUmj-73" target="rYBxTqaCffbAJavjTUmj-83">
          <mxGeometry relative="1" as="geometry" />
        </mxCell>
        <mxCell id="rYBxTqaCffbAJavjTUmj-85" value="&lt;span style=&quot;color: rgb(0, 0, 0); font-family: Verdana; font-size: 12px; font-style: normal; font-variant-ligatures: normal; font-variant-caps: normal; font-weight: 400; letter-spacing: normal; orphans: 2; text-align: center; text-indent: 0px; text-transform: none; widows: 2; word-spacing: 0px; -webkit-text-stroke-width: 0px; background-color: rgb(251, 251, 251); text-decoration-thickness: initial; text-decoration-style: initial; text-decoration-color: initial; float: none; display: inline !important;&quot;&gt;Yes&lt;/span&gt;" style="text;whiteSpace=wrap;html=1;fontSize=11;fontFamily=Helvetica;fontColor=default;" vertex="1" parent="1">
          <mxGeometry x="580" y="780" width="30" height="30" as="geometry" />
        </mxCell>
        <mxCell id="rYBxTqaCffbAJavjTUmj-86" value="&lt;span style=&quot;color: rgb(0, 0, 0); font-family: Verdana; font-size: 12px; font-style: normal; font-variant-ligatures: normal; font-variant-caps: normal; font-weight: 400; letter-spacing: normal; orphans: 2; text-align: center; text-indent: 0px; text-transform: none; widows: 2; word-spacing: 0px; -webkit-text-stroke-width: 0px; background-color: rgb(251, 251, 251); text-decoration-thickness: initial; text-decoration-style: initial; text-decoration-color: initial; float: none; display: inline !important;&quot;&gt;No&lt;/span&gt;" style="text;whiteSpace=wrap;html=1;fontSize=11;fontFamily=Helvetica;fontColor=default;" vertex="1" parent="1">
          <mxGeometry x="440" y="790" width="30" height="30" as="geometry" />
        </mxCell>
        <mxCell id="rYBxTqaCffbAJavjTUmj-97" style="edgeStyle=none;shape=connector;rounded=0;orthogonalLoop=1;jettySize=auto;html=1;exitX=0.25;exitY=1;exitDx=0;exitDy=0;entryX=0.75;entryY=0;entryDx=0;entryDy=0;labelBackgroundColor=default;strokeColor=default;align=center;verticalAlign=middle;fontFamily=Helvetica;fontSize=11;fontColor=default;endArrow=none;endFill=0;" edge="1" parent="1" source="rYBxTqaCffbAJavjTUmj-89" target="rYBxTqaCffbAJavjTUmj-96">
          <mxGeometry relative="1" as="geometry" />
        </mxCell>
        <mxCell id="rYBxTqaCffbAJavjTUmj-98" style="edgeStyle=none;shape=connector;rounded=0;orthogonalLoop=1;jettySize=auto;html=1;exitX=0.75;exitY=1;exitDx=0;exitDy=0;entryX=0.25;entryY=0;entryDx=0;entryDy=0;labelBackgroundColor=default;strokeColor=default;align=center;verticalAlign=middle;fontFamily=Helvetica;fontSize=11;fontColor=default;endArrow=none;endFill=0;" edge="1" parent="1" source="rYBxTqaCffbAJavjTUmj-89" target="rYBxTqaCffbAJavjTUmj-90">
          <mxGeometry relative="1" as="geometry" />
        </mxCell>
        <mxCell id="rYBxTqaCffbAJavjTUmj-89" value="Bandwidth memadai?" style="whiteSpace=wrap;html=1;rounded=1;shadow=1;labelBackgroundColor=none;strokeWidth=1;fontFamily=Verdana;fontSize=12;align=center;fillColor=#1ba1e2;fontColor=#ffffff;strokeColor=#006EAF;" vertex="1" parent="1">
          <mxGeometry x="267.5" y="920" width="120" height="60" as="geometry" />
        </mxCell>
        <mxCell id="rYBxTqaCffbAJavjTUmj-103" style="edgeStyle=none;shape=connector;rounded=0;orthogonalLoop=1;jettySize=auto;html=1;exitX=0.75;exitY=1;exitDx=0;exitDy=0;labelBackgroundColor=default;strokeColor=default;align=center;verticalAlign=middle;fontFamily=Helvetica;fontSize=11;fontColor=default;endArrow=none;endFill=0;" edge="1" parent="1" source="rYBxTqaCffbAJavjTUmj-90" target="rYBxTqaCffbAJavjTUmj-102">
          <mxGeometry relative="1" as="geometry" />
        </mxCell>
        <mxCell id="rYBxTqaCffbAJavjTUmj-90" value="Firewall untuk services yang diperlukan telah dibuka?" style="whiteSpace=wrap;html=1;rounded=1;shadow=1;labelBackgroundColor=none;strokeWidth=1;fontFamily=Verdana;fontSize=12;align=center;fillColor=#1ba1e2;fontColor=#ffffff;strokeColor=#006EAF;" vertex="1" parent="1">
          <mxGeometry x="360" y="1030" width="120" height="60" as="geometry" />
        </mxCell>
        <mxCell id="rYBxTqaCffbAJavjTUmj-92" value="Reboot Server" style="whiteSpace=wrap;html=1;rounded=0;shadow=1;labelBackgroundColor=none;strokeWidth=2;fontFamily=Verdana;fontSize=12;align=center;fillColor=#60a917;fontColor=#ffffff;strokeColor=#2D7600;" vertex="1" parent="1">
          <mxGeometry x="440" y="920" width="120" height="60" as="geometry" />
        </mxCell>
        <mxCell id="rYBxTqaCffbAJavjTUmj-96" value="Request Extend Bandwidth ke Provider" style="whiteSpace=wrap;html=1;rounded=0;shadow=1;labelBackgroundColor=none;strokeWidth=2;fontFamily=Verdana;fontSize=12;align=center;fillColor=#60a917;fontColor=#ffffff;strokeColor=#2D7600;" vertex="1" parent="1">
          <mxGeometry x="160" y="1030" width="120" height="60" as="geometry" />
        </mxCell>
        <mxCell id="rYBxTqaCffbAJavjTUmj-100" value="Buka Firewall yang diperlukan" style="whiteSpace=wrap;html=1;rounded=0;shadow=1;labelBackgroundColor=none;strokeWidth=2;fontFamily=Verdana;fontSize=12;align=center;fillColor=#60a917;fontColor=#ffffff;strokeColor=#2D7600;" vertex="1" parent="1">
          <mxGeometry x="260" y="1130" width="120" height="60" as="geometry" />
        </mxCell>
        <mxCell id="rYBxTqaCffbAJavjTUmj-101" style="edgeStyle=none;shape=connector;rounded=0;orthogonalLoop=1;jettySize=auto;html=1;exitX=0.25;exitY=1;exitDx=0;exitDy=0;entryX=0.717;entryY=0.005;entryDx=0;entryDy=0;entryPerimeter=0;labelBackgroundColor=default;strokeColor=default;align=center;verticalAlign=middle;fontFamily=Helvetica;fontSize=11;fontColor=default;endArrow=none;endFill=0;" edge="1" parent="1" source="rYBxTqaCffbAJavjTUmj-90" target="rYBxTqaCffbAJavjTUmj-100">
          <mxGeometry relative="1" as="geometry" />
        </mxCell>
        <mxCell id="rYBxTqaCffbAJavjTUmj-102" value="Reboot Server" style="whiteSpace=wrap;html=1;rounded=0;shadow=1;labelBackgroundColor=none;strokeWidth=2;fontFamily=Verdana;fontSize=12;align=center;fillColor=#60a917;fontColor=#ffffff;strokeColor=#2D7600;" vertex="1" parent="1">
          <mxGeometry x="460" y="1130" width="120" height="60" as="geometry" />
        </mxCell>
        <mxCell id="rYBxTqaCffbAJavjTUmj-104" value="&lt;span style=&quot;color: rgb(0, 0, 0); font-family: Verdana; font-size: 12px; font-style: normal; font-variant-ligatures: normal; font-variant-caps: normal; font-weight: 400; letter-spacing: normal; orphans: 2; text-align: center; text-indent: 0px; text-transform: none; widows: 2; word-spacing: 0px; -webkit-text-stroke-width: 0px; background-color: rgb(251, 251, 251); text-decoration-thickness: initial; text-decoration-style: initial; text-decoration-color: initial; float: none; display: inline !important;&quot;&gt;Yes&lt;/span&gt;" style="text;whiteSpace=wrap;html=1;fontSize=11;fontFamily=Helvetica;fontColor=default;" vertex="1" parent="1">
          <mxGeometry x="340" y="880" width="30" height="30" as="geometry" />
        </mxCell>
        <mxCell id="rYBxTqaCffbAJavjTUmj-105" value="&lt;span style=&quot;color: rgb(0, 0, 0); font-family: Verdana; font-size: 12px; font-style: normal; font-variant-ligatures: normal; font-variant-caps: normal; font-weight: 400; letter-spacing: normal; orphans: 2; text-align: center; text-indent: 0px; text-transform: none; widows: 2; word-spacing: 0px; -webkit-text-stroke-width: 0px; background-color: rgb(251, 251, 251); text-decoration-thickness: initial; text-decoration-style: initial; text-decoration-color: initial; float: none; display: inline !important;&quot;&gt;No&lt;/span&gt;" style="text;whiteSpace=wrap;html=1;fontSize=11;fontFamily=Helvetica;fontColor=default;" vertex="1" parent="1">
          <mxGeometry x="475" y="880" width="30" height="30" as="geometry" />
        </mxCell>
        <mxCell id="rYBxTqaCffbAJavjTUmj-106" value="&lt;span style=&quot;color: rgb(0, 0, 0); font-family: Verdana; font-size: 12px; font-style: normal; font-variant-ligatures: normal; font-variant-caps: normal; font-weight: 400; letter-spacing: normal; orphans: 2; text-align: center; text-indent: 0px; text-transform: none; widows: 2; word-spacing: 0px; -webkit-text-stroke-width: 0px; background-color: rgb(251, 251, 251); text-decoration-thickness: initial; text-decoration-style: initial; text-decoration-color: initial; float: none; display: inline !important;&quot;&gt;Yes&lt;/span&gt;" style="text;whiteSpace=wrap;html=1;fontSize=11;fontFamily=Helvetica;fontColor=default;" vertex="1" parent="1">
          <mxGeometry x="380" y="990" width="30" height="30" as="geometry" />
        </mxCell>
        <mxCell id="rYBxTqaCffbAJavjTUmj-107" value="&lt;span style=&quot;color: rgb(0, 0, 0); font-family: Verdana; font-size: 12px; font-style: normal; font-variant-ligatures: normal; font-variant-caps: normal; font-weight: 400; letter-spacing: normal; orphans: 2; text-align: center; text-indent: 0px; text-transform: none; widows: 2; word-spacing: 0px; -webkit-text-stroke-width: 0px; background-color: rgb(251, 251, 251); text-decoration-thickness: initial; text-decoration-style: initial; text-decoration-color: initial; float: none; display: inline !important;&quot;&gt;No&lt;/span&gt;" style="text;whiteSpace=wrap;html=1;fontSize=11;fontFamily=Helvetica;fontColor=default;" vertex="1" parent="1">
          <mxGeometry x="250" y="990" width="30" height="30" as="geometry" />
        </mxCell>
        <mxCell id="rYBxTqaCffbAJavjTUmj-108" value="&lt;span style=&quot;color: rgb(0, 0, 0); font-family: Verdana; font-size: 12px; font-style: normal; font-variant-ligatures: normal; font-variant-caps: normal; font-weight: 400; letter-spacing: normal; orphans: 2; text-align: center; text-indent: 0px; text-transform: none; widows: 2; word-spacing: 0px; -webkit-text-stroke-width: 0px; background-color: rgb(251, 251, 251); text-decoration-thickness: initial; text-decoration-style: initial; text-decoration-color: initial; float: none; display: inline !important;&quot;&gt;No&lt;/span&gt;" style="text;whiteSpace=wrap;html=1;fontSize=11;fontFamily=Helvetica;fontColor=default;" vertex="1" parent="1">
          <mxGeometry x="340" y="1090" width="30" height="30" as="geometry" />
        </mxCell>
        <mxCell id="rYBxTqaCffbAJavjTUmj-109" value="&lt;span style=&quot;color: rgb(0, 0, 0); font-family: Verdana; font-size: 12px; font-style: normal; font-variant-ligatures: normal; font-variant-caps: normal; font-weight: 400; letter-spacing: normal; orphans: 2; text-align: center; text-indent: 0px; text-transform: none; widows: 2; word-spacing: 0px; -webkit-text-stroke-width: 0px; background-color: rgb(251, 251, 251); text-decoration-thickness: initial; text-decoration-style: initial; text-decoration-color: initial; float: none; display: inline !important;&quot;&gt;Yes&lt;/span&gt;" style="text;whiteSpace=wrap;html=1;fontSize=11;fontFamily=Helvetica;fontColor=default;" vertex="1" parent="1">
          <mxGeometry x="485" y="1090" width="30" height="30" as="geometry" />
        </mxCell>
        <mxCell id="rYBxTqaCffbAJavjTUmj-111" value="Meminimalisir &amp;amp; Optimasi penggunaan services" style="whiteSpace=wrap;html=1;rounded=0;shadow=1;labelBackgroundColor=none;strokeWidth=2;fontFamily=Verdana;fontSize=12;align=center;fillColor=#60a917;fontColor=#ffffff;strokeColor=#2D7600;" vertex="1" parent="1">
          <mxGeometry x="585" y="920" width="120" height="60" as="geometry" />
        </mxCell>
        <mxCell id="rYBxTqaCffbAJavjTUmj-113" value="&lt;span style=&quot;color: rgb(0, 0, 0); font-family: Verdana; font-size: 12px; font-style: normal; font-variant-ligatures: normal; font-variant-caps: normal; font-weight: 400; letter-spacing: normal; orphans: 2; text-align: center; text-indent: 0px; text-transform: none; widows: 2; word-spacing: 0px; -webkit-text-stroke-width: 0px; background-color: rgb(251, 251, 251); text-decoration-thickness: initial; text-decoration-style: initial; text-decoration-color: initial; float: none; display: inline !important;&quot;&gt;No&lt;/span&gt;" style="text;whiteSpace=wrap;html=1;fontSize=11;fontFamily=Helvetica;fontColor=default;" vertex="1" parent="1">
          <mxGeometry x="580" y="890" width="30" height="30" as="geometry" />
        </mxCell>
        <mxCell id="rYBxTqaCffbAJavjTUmj-119" style="edgeStyle=none;shape=connector;rounded=0;orthogonalLoop=1;jettySize=auto;html=1;exitX=0.75;exitY=1;exitDx=0;exitDy=0;entryX=0.25;entryY=0;entryDx=0;entryDy=0;labelBackgroundColor=default;strokeColor=default;align=center;verticalAlign=middle;fontFamily=Helvetica;fontSize=11;fontColor=default;endArrow=none;endFill=0;" edge="1" parent="1" source="rYBxTqaCffbAJavjTUmj-114" target="rYBxTqaCffbAJavjTUmj-118">
          <mxGeometry relative="1" as="geometry" />
        </mxCell>
        <mxCell id="rYBxTqaCffbAJavjTUmj-114" value="User yang akses banyak?" style="whiteSpace=wrap;html=1;rounded=1;shadow=1;labelBackgroundColor=none;strokeWidth=1;fontFamily=Verdana;fontSize=12;align=center;fillColor=#1ba1e2;fontColor=#ffffff;strokeColor=#006EAF;" vertex="1" parent="1">
          <mxGeometry x="750" y="850" width="120" height="60" as="geometry" />
        </mxCell>
        <mxCell id="rYBxTqaCffbAJavjTUmj-116" value="&lt;span style=&quot;color: rgb(0, 0, 0); font-family: Verdana; font-size: 12px; font-style: normal; font-variant-ligatures: normal; font-variant-caps: normal; font-weight: 400; letter-spacing: normal; orphans: 2; text-align: center; text-indent: 0px; text-transform: none; widows: 2; word-spacing: 0px; -webkit-text-stroke-width: 0px; background-color: rgb(251, 251, 251); text-decoration-thickness: initial; text-decoration-style: initial; text-decoration-color: initial; float: none; display: inline !important;&quot;&gt;Yes&lt;/span&gt;" style="text;whiteSpace=wrap;html=1;fontSize=11;fontFamily=Helvetica;fontColor=default;" vertex="1" parent="1">
          <mxGeometry x="705" y="850" width="30" height="30" as="geometry" />
        </mxCell>
        <mxCell id="rYBxTqaCffbAJavjTUmj-118" value="Horizontal Scale Up Server (Perbanyak Server)" style="whiteSpace=wrap;html=1;rounded=0;shadow=1;labelBackgroundColor=none;strokeWidth=2;fontFamily=Verdana;fontSize=12;align=center;fillColor=#60a917;fontColor=#ffffff;strokeColor=#2D7600;" vertex="1" parent="1">
          <mxGeometry x="890" y="940" width="120" height="60" as="geometry" />
        </mxCell>
        <mxCell id="rYBxTqaCffbAJavjTUmj-124" style="edgeStyle=none;shape=connector;rounded=0;orthogonalLoop=1;jettySize=auto;html=1;exitX=0.25;exitY=1;exitDx=0;exitDy=0;labelBackgroundColor=default;strokeColor=default;align=center;verticalAlign=middle;fontFamily=Helvetica;fontSize=11;fontColor=default;endArrow=none;endFill=0;" edge="1" parent="1" source="rYBxTqaCffbAJavjTUmj-121" target="rYBxTqaCffbAJavjTUmj-123">
          <mxGeometry relative="1" as="geometry" />
        </mxCell>
        <mxCell id="rYBxTqaCffbAJavjTUmj-126" style="edgeStyle=none;shape=connector;rounded=0;orthogonalLoop=1;jettySize=auto;html=1;exitX=0.75;exitY=1;exitDx=0;exitDy=0;labelBackgroundColor=default;strokeColor=default;align=center;verticalAlign=middle;fontFamily=Helvetica;fontSize=11;fontColor=default;endArrow=none;endFill=0;" edge="1" parent="1" source="rYBxTqaCffbAJavjTUmj-121" target="rYBxTqaCffbAJavjTUmj-125">
          <mxGeometry relative="1" as="geometry" />
        </mxCell>
        <mxCell id="rYBxTqaCffbAJavjTUmj-121" value="Processing data memerlukan resource tinggi?" style="whiteSpace=wrap;html=1;rounded=1;shadow=1;labelBackgroundColor=none;strokeWidth=1;fontFamily=Verdana;fontSize=12;align=center;fillColor=#1ba1e2;fontColor=#ffffff;strokeColor=#006EAF;" vertex="1" parent="1">
          <mxGeometry x="720" y="940" width="120" height="60" as="geometry" />
        </mxCell>
        <mxCell id="rYBxTqaCffbAJavjTUmj-122" style="edgeStyle=none;shape=connector;rounded=0;orthogonalLoop=1;jettySize=auto;html=1;exitX=0.25;exitY=1;exitDx=0;exitDy=0;entryX=0.306;entryY=-0.017;entryDx=0;entryDy=0;entryPerimeter=0;labelBackgroundColor=default;strokeColor=default;align=center;verticalAlign=middle;fontFamily=Helvetica;fontSize=11;fontColor=default;endArrow=none;endFill=0;" edge="1" parent="1" source="rYBxTqaCffbAJavjTUmj-114" target="rYBxTqaCffbAJavjTUmj-121">
          <mxGeometry relative="1" as="geometry" />
        </mxCell>
        <mxCell id="rYBxTqaCffbAJavjTUmj-123" value="Vertical Scale Up Server (Upgrade CPU/MEM Server)" style="whiteSpace=wrap;html=1;rounded=0;shadow=1;labelBackgroundColor=none;strokeWidth=2;fontFamily=Verdana;fontSize=12;align=center;fillColor=#60a917;fontColor=#ffffff;strokeColor=#2D7600;" vertex="1" parent="1">
          <mxGeometry x="640" y="1040" width="120" height="60" as="geometry" />
        </mxCell>
        <mxCell id="rYBxTqaCffbAJavjTUmj-125" value="Horizontal Scale Up Server (Perbanyak Server)" style="whiteSpace=wrap;html=1;rounded=0;shadow=1;labelBackgroundColor=none;strokeWidth=2;fontFamily=Verdana;fontSize=12;align=center;fillColor=#60a917;fontColor=#ffffff;strokeColor=#2D7600;" vertex="1" parent="1">
          <mxGeometry x="815" y="1040" width="120" height="60" as="geometry" />
        </mxCell>
        <mxCell id="rYBxTqaCffbAJavjTUmj-127" value="&lt;span style=&quot;color: rgb(0, 0, 0); font-family: Verdana; font-size: 12px; font-style: normal; font-variant-ligatures: normal; font-variant-caps: normal; font-weight: 400; letter-spacing: normal; orphans: 2; text-align: center; text-indent: 0px; text-transform: none; widows: 2; word-spacing: 0px; -webkit-text-stroke-width: 0px; background-color: rgb(251, 251, 251); text-decoration-thickness: initial; text-decoration-style: initial; text-decoration-color: initial; float: none; display: inline !important;&quot;&gt;No&lt;/span&gt;" style="text;whiteSpace=wrap;html=1;fontSize=11;fontFamily=Helvetica;fontColor=default;" vertex="1" parent="1">
          <mxGeometry x="882.5" y="900" width="30" height="30" as="geometry" />
        </mxCell>
      </root>
    </mxGraphModel>
  </diagram>
</mxfile>
